# AST/ASF file generated using VICON BodyLanguage
# -----------------------------------------------
:version 1.10
:name VICON
:units
  mass 1.0
  length 0.45
  angle deg
:documentation
   .ast/.asf automatically generated from VICON data using
   VICON BodyBuilder and BodyLanguage model FoxedUp or BRILLIANT.MOD
:root
   order TX TY TZ RX RY RZ
   axis XYZ
   position 0 0 0  
   orientation 0 0 0 
:bonedata
  begin
     id 1 
     name lhipjoint
     direction 0.522423 -0.726805 0.445902 
     length 2.25074 
     axis 0 0 0  XYZ
  end
  begin
     id 2 
     name lfemur
     direction 0.34202 -0.939693 0  
     length 6.54609  
     axis 0 0 20  XYZ
    dof rx ry rz
    limits (-160.0 20.0)
           (-70.0 70.0)
           (-60.0 70.0)
  end
  begin
     id 3 
     name ltibia
     direction 0.34202 -0.939693 0   
     length 7.7528   
     axis 0 0 20   XYZ
    dof rx
    limits (-10.0 170.0)
  end
  begin
     id 4 
     name lfoot
     direction 0.143696 -0.394801 0.90746   
     length 1.73269   
     axis -90 7.62852e-016 20   XYZ
    dof rx rz
    limits (-45.0 90.0)
           (-70.0 20.0)
  end
  begin
     id 5 
     name ltoes
     direction 1.53633e-011 -4.21912e-011 1   
     length 0.858383   
     axis -90 7.62852e-016 20   XYZ
    dof rx
    limits (-90.0 20.0)
  end
  begin
     id 6 
     name rhipjoint
     direction -0.515943 -0.73016 0.447961   
     length 2.2404  
     axis 0 0 0  XYZ 
  end
  begin
     id 7 
     name rfemur
     direction -0.34202 -0.939693 0   
     length 6.84377   
     axis 0 0 -20   XYZ
    dof rx ry rz
    limits (-160.0 20.0)
           (-70.0 70.0)
           (-70.0 60.0)
  end
  begin
     id 8 
     name rtibia
     direction -0.34202 -0.939693 0   
     length 7.57596   
     axis 0 0 -20   XYZ
    dof rx
    limits (-10.0 170.0)
 end
 begin
     id 9 
     name rfoot
     direction -0.0999372 -0.274575 0.956358   
     length 1.78783  
     axis -90 -7.62852e-016 -20   XYZ
    dof rx rz
    limits (-45.0 90.0)
           (-20.0 70.0)
  end
  begin
     id 10 
     name rtoes
     direction -1.53535e-011 -4.21895e-011 1   
     length 0.898614   
     axis -90 -7.62852e-016 -20   XYZ
    dof rx
    limits (-90.0 20.0)
  end
  begin
     id 11 
     name lowerback
     direction -0.011775 0.996164 -0.0867116   
     length 1.91499   
     axis 0 0 0   XYZ
    dof rx ry rz
    limits (-20.0 45.0)
           (-30.0 30.0)
           (-30.0 30.0)
  end
  begin
     id 12 
     name upperback
     direction -0.00189771 0.999673 -0.0254833   
     length 1.92213   
     axis 0 0 0   XYZ
    dof rx ry rz
    limits (-20.0 45.0)
           (-30.0 30.0)
           (-30.0 30.0)
  end
  begin
     id 13 
     name thorax
     direction 0.00335995 0.999878 0.0152401   
     length 1.93138   
     axis 0 0 0   XYZ
    dof rx ry rz
    limits (-20.0 45.0)
           (-30.0 30.0)
           (-30.0 30.0)
  end
  begin
     id 14 
     name lowerneck
     direction 0.00233191 0.998509 0.0545404   
     length 1.59408   
     axis 0 0 0   XYZ
    dof rx ry rz
    limits (-20.0 45.0)
           (-30.0 30.0)
           (-30.0 30.0)
  end
  begin
     id 15 
     name upperneck
     direction 0.07881 0.9956 -0.0506934   
     length 1.59344   
     axis 0 0 0   XYZ
    dof rx ry rz
    limits (-20.0 45.0)
           (-30.0 30.0)
           (-30.0 30.0)
  end
  begin
     id 16
     name head
     direction 0.0261681 0.999378 -0.0236299  
     length 1.60935  
     axis 0 0 0   XYZ
    dof rx ry rz
    limits (-20.0 45.0)
           (-30.0 30.0)
           (-30.0 30.0)
  end
  begin
     id 17 
     name lclavicle
     direction 0.96643 0.252035 0.0499195  
     length 3.82153  
     axis 0 0 0   XYZ
    dof ry rz
    limits (-20.0 10.0)
           (0.0 20.0)
  end
  begin
     id 18 
     name lhumerus
     direction 1 -4.48967e-011 -2.01614e-018   
     length 4.87796   
     axis 180 -30 -90   XYZ
    dof rx ry rz
    limits (-60.0 90.0)
           (-90.0 90.0)
           (-90.0 90.0)
  end
  begin
     id 19
     name lradius
     direction 1 -4.48958e-011 3.1409e-027   
     length 3.23169   
     axis 180 -30 -90   XYZ
    dof rx
    limits (-10.0 170.0)
  end
  begin
     id 20
     name lwrist
     direction 1 -4.48924e-011 1.0365e-027   
     length 1.61584   
     axis -2.56395e-016 90 90   XYZ
    dof ry
    limits (-180.0 0.0)
 end
  begin
     id 21 
     name lhand
     direction 1 -4.49055e-011 2.09488e-027   
     length 0.731324   
     axis -1.32723e-015 90 90   XYZ
    dof rx rz
    limits (-90.0 90.0)
           (-45.0 45.0)
  end
  begin
     id 22 
     name lfingers
     direction 1 -4.48935e-011 4.14981e-027   
     length 0.589612   
     axis -2.6545e-015 90 90   XYZ
    dof rx
    limits (0.0 90.0)
  end
  begin
     id 23
     name lthumb
     direction 0.707107 -6.35097e-011 0.707107   
     length 0.846569   
     axis -90 45 5.05613e-014   XYZ
    dof rx rz
    limits (-45.0 45.0)
           (-45.0 45.0)
  end
  begin
     id 24 
     name rclavicle
     direction -0.979337 0.201016 0.0221522   
     length 3.73827  
     axis 0 0 0   XYZ 
    dof ry rz
    limits (-10.0 20.0)
           (-20.0 0.0)
  end
  begin
     id 25 
     name rhumerus
     direction -1 -4.48971e-011 1.65907e-027  
     length 4.9143   
     axis 180 30 90   XYZ
    dof rx ry rz
    limits (-90.0 60.0)
           (-90.0 90.0)
           (-90.0 90.0)
  end
  begin
     id 26 
     name rradius
     direction -1 -4.4894e-011 2.17871e-028   
     length 3.29093   
     axis 180 30 90   XYZ
    dof rx
    limits (-10.0 170.0)
  end
  begin
     id 27 
     name rwrist
     direction -1 -4.48971e-011 1.04038e-027   
     length 1.64546   
     axis -2.56395e-016 -90 -90   XYZ
    dof ry
    limits (-180.0 0.0)
  end
  begin
     id 28
     name rhand
     direction -1 -4.49017e-011 2.08843e-027   
     length 0.54512   
     axis -1.32723e-015 -90 -90   XYZ
    dof rx rz
    limits (-90.0 90.0)
           (-45.0 45.0)
  end
  begin
     id 29
     name rfingers
     direction -1 -4.48918e-011 4.1439e-027   
     length 0.43949   
     axis -2.6545e-015 -90 -90   XYZ
    dof rx
    limits (0.0 90.0)
  end
  begin
     id 30
     name rthumb
     direction -0.707107 -6.35065e-011 0.707107   
     length 0.631022   
     axis -90 -45 -5.05613e-014   XYZ
    dof rx rz
    limits (-45.0 45.0)
           (-45.0 45.0)
  end
:hierarchy
  begin
    root lhipjoint rhipjoint lowerback
    lhipjoint lfemur
    lfemur ltibia
    ltibia lfoot
    lfoot ltoes
    rhipjoint rfemur
    rfemur rtibia
    rtibia rfoot
    rfoot rtoes
    lowerback upperback
    upperback thorax
    thorax lowerneck lclavicle rclavicle
    lowerneck upperneck
    upperneck head
    lclavicle lhumerus
    lhumerus lradius
    lradius lwrist
    lwrist lhand lthumb
    lhand lfingers
    rclavicle rhumerus
    rhumerus rradius
    rradius rwrist
    rwrist rhand rthumb
    rhand rfingers
  end

#!OML:ASF H:\BreakDance\Project 1\Capture day 1\Session 1\Male.ASF
:FULLY-SPECIFIED
:DEGREES
46
root 10.4973 15.8973 -0.660019 -134.165 -88.6303 131.251
lowerback -7.23823 -0.474446 -3.24505
upperback 3.42751 -0.253098 -0.906004
thorax 7.68764 -0.271461 0.833407
lowerneck -0.422193 0.843913 -1.30444
upperneck 19.4777 0.0176112 3.70523
head 5.94166 -0.0652022 1.36832
rclavicle 9.13167e-016 3.97569e-016
rhumerus -27.2469 17.4413 -92.3738
rradius 45.6744
rwrist 15.273
rhand -18.8888 -37.7872
rfingers 7.12502
rthumb 7.41248 -67.6374
lclavicle 9.13167e-016 3.97569e-016
lhumerus -30.0782 10.1463 84.5955
lradius 53.3428
lwrist -33.0726
lhand -11.6718 -28.6982
lfingers 7.12502
lthumb 14.3732 0.784208
rfemur -9.68752 3.19792 8.87573
rtibia 39.4688
rfoot -34.0067 -9.35089
rtoes 31.883
lfemur -12.0312 -0.271196 -9.41125
ltibia 39.9134
lfoot -27.5158 22.7994
ltoes -35.5741
47
root 10.4936 15.8967 -0.659891 -132.311 -88.6053 129.399
lowerback -7.25379 -0.482544 -3.27998
upperback 3.41629 -0.258494 -0.927439
thorax 7.68512 -0.275159 0.829666
lowerneck -0.378037 0.848046 -1.28958
upperneck 19.4389 0.0281206 3.68139
head 5.92169 -0.0610737 1.35841
rclavicle 7.38609e-015 4.77083e-015
rhumerus -27.271 17.4881 -92.3856
rradius 45.6686
rwrist 15.2801
rhand -18.8952 -37.654
rfingers 7.12502
rthumb 7.40633 -67.5044
lclavicle 7.38609e-015 4.77083e-015
lhumerus -30.0734 10.1726 84.5963
lradius 53.304
lwrist -33.1453
lhand -11.7553 -28.636
lfingers 7.12502
lthumb 14.2928 0.85211
rfemur -9.67801 3.07484 8.79629
rtibia 39.4781
rfoot -33.9563 -9.27423
rtoes 31.8627
lfemur -12.0195 -0.272971 -9.46747
ltibia 39.9087
lfoot -27.5232 22.8027
ltoes -35.5968
48
root 10.4895 15.8962 -0.660221 -130.493 -88.5745 127.578
lowerback -7.27479 -0.490479 -3.32979
upperback 3.41023 -0.26198 -0.946208
thorax 7.69139 -0.27894 0.837255
lowerneck -0.348126 0.852291 -1.27528
upperneck 19.4139 0.038732 3.65467
head 5.90853 -0.0569929 1.34783
rclavicle 5.37961e-015 3.97569e-016
rhumerus -27.289 17.5382 -92.3902
rradius 45.6715
rwrist 15.2645
rhand -18.8498 -37.5495
rfingers 7.12502
rthumb 7.4501 -67.3983
lclavicle 5.37961e-015 3.97569e-016
lhumerus -30.0648 10.198 84.5917
lradius 53.2556
lwrist -33.1889
lhand -11.8273 -28.6073
lfingers 7.12502
lthumb 14.2234 0.885669
rfemur -9.659 2.9913 8.72251
rtibia 39.4838
rfoot -33.9217 -9.25098
rtoes 31.7542
lfemur -11.9991 -0.298155 -9.52956
ltibia 39.9029
lfoot -27.5432 22.8287
ltoes -35.6588
49
root 10.4852 15.8961 -0.661196 -129.492 -88.5497 126.565
lowerback -7.2911 -0.494205 -3.37456
upperback 3.40704 -0.261027 -0.956457
thorax 7.69782 -0.280551 0.851611
lowerneck -0.331761 0.856354 -1.26344
upperneck 19.407 0.0483285 3.62757
head 5.90343 -0.0535604 1.33763
rclavicle -1.61513e-015 -3.57812e-015
rhumerus -27.3059 17.5937 -92.3918
rradius 45.6825
rwrist 15.2153
rhand -18.7742 -37.479
rfingers 7.12502
rthumb 7.52314 -67.3252
lclavicle -1.61513e-015 -3.57812e-015
lhumerus -30.0551 10.2214 84.5817
lradius 53.1983
lwrist -33.2004
lhand -11.8759 -28.6255
lfingers 7.12502
lthumb 14.1766 0.87078
rfemur -9.62748 2.98059 8.68528
rtibia 39.4843
rfoot -33.9237 -9.28006
rtoes 31.6237
lfemur -11.9656 -0.344062 -9.57209
ltibia 39.8973
lfoot -27.5894 22.8623
ltoes -35.7066
50
root 10.481 15.8963 -0.662652 -129.604 -88.5378 126.657
lowerback -7.30097 -0.491782 -3.39858
upperback 3.40438 -0.254839 -0.957136
thorax 7.70069 -0.27873 0.865182
lowerneck -0.322053 0.860377 -1.25318
upperneck 19.4129 0.0571898 3.60031
head 5.90354 -0.0506499 1.32772
rclavicle -4.66523e-015 -3.18055e-015
rhumerus -27.3236 17.6577 -92.394
rradius 45.6984
rwrist 15.1177
rhand -18.6911 -37.4515
rfingers 7.12502
rthumb 7.60336 -67.2948
lclavicle -4.66523e-015 -3.18055e-015
lhumerus -30.0531 10.2422 84.5685
lradius 53.1445
lwrist -33.1897
lhand -11.9054 -28.6873
lfingers 7.12502
lthumb 14.1481 0.811009
rfemur -9.58714 3.03025 8.6921
rtibia 39.4791
rfoot -33.9559 -9.33127
rtoes 31.5378
lfemur -11.9218 -0.398945 -9.58347
ltibia 39.8937
lfoot -27.6502 22.898
ltoes -35.7251
51
root 10.477 15.8965 -0.664109 -130.707 -88.5399 127.742
lowerback -7.30701 -0.483269 -3.39531
upperback 3.399 -0.244004 -0.949739
thorax 7.69797 -0.27331 0.872669
lowerneck -0.31472 0.863371 -1.24735
upperneck 19.4239 0.0637998 3.57767
head 5.90569 -0.0488562 1.31993
rclavicle 2.08103e-015 9.54166e-015
rhumerus -27.3437 17.7293 -92.3957
rradius 45.715
rwrist 14.9851
rhand -18.6113 -37.4748
rfingers 7.12502
rthumb 7.68033 -67.3153
lclavicle 2.08103e-015 9.54166e-015
lhumerus -30.0642 10.2576 84.5568
lradius 53.1035
lwrist -33.1675
lhand -11.9259 -28.7824
lfingers 7.12502
lthumb 14.1284 0.717235
rfemur -9.55003 3.09763 8.73168
rtibia 39.4697
rfoot -33.9939 -9.38075
rtoes 31.484
lfemur -11.8775 -0.456786 -9.56621
ltibia 39.8928
lfoot -27.7131 22.9351
ltoes -35.7159
52
root 10.4732 15.8969 -0.665385 -132.876 -88.5588 129.898
lowerback -7.31325 -0.469849 -3.36238
upperback 3.39109 -0.23032 -0.931576
thorax 7.69227 -0.265145 0.875289
lowerneck -0.309116 0.863542 -1.24875
upperneck 19.4305 0.0664256 3.56105
head 5.9068 -0.0489764 1.31505
rclavicle -7.65321e-015 -5.1684e-015
rhumerus -27.3653 17.7951 -92.3929
rradius 45.732
rwrist 14.847
rhand -18.5394 -37.5409
rfingers 7.12502
rthumb 7.74975 -67.3789
lclavicle -7.65321e-015 -5.1684e-015
lhumerus -30.0798 10.2707 84.5524
lradius 53.0729
lwrist -33.1463
lhand -11.9463 -28.8926
lfingers 7.12502
lthumb 14.1087 0.608414
rfemur -9.52303 3.17409 8.80631
rtibia 39.4578
rfoot -34.036 -9.42093
rtoes 31.4741
lfemur -11.8396 -0.503614 -9.51444
ltibia 39.8951
lfoot -27.7696 22.9631
ltoes -35.6724
53
root 10.4697 15.8971 -0.665993 -134.616 -88.5765 131.642
lowerback -7.33078 -0.457665 -3.32619
upperback 3.37787 -0.217832 -0.919065
thorax 7.68744 -0.257178 0.86993
lowerneck -0.289138 0.858018 -1.24108
upperneck 19.4181 0.0622588 3.54095
head 5.89968 -0.0520244 1.30704
rclavicle -9.05713e-015 -1.51076e-014
rhumerus -27.3882 17.8354 -92.3887
rradius 45.7539
rwrist 14.7199
rhand -18.4701 -37.6442
rfingers 7.12502
rthumb 7.81666 -67.4797
lclavicle -9.05713e-015 -1.51076e-014
lhumerus -30.0997 10.2708 84.5546
lradius 53.0585
lwrist -33.1276
lhand -11.9722 -28.987
lfingers 7.12502
lthumb 14.0838 0.515769
rfemur -9.51416 3.2125 8.8623
rtibia 39.4458
rfoot -34.0639 -9.42699
rtoes 31.5109
lfemur -11.824 -0.529652 -9.47068
ltibia 39.8991
lfoot -27.8087 22.9722
ltoes -35.605
54
root 10.4662 15.8973 -0.66618 -135.569 -88.5872 132.613
lowerback -7.36298 -0.448952 -3.3013
upperback 3.36344 -0.207639 -0.915283
thorax 7.69 -0.250771 0.861322
lowerneck -0.255183 0.847889 -1.21845
upperneck 19.3855 0.0531433 3.51374
head 5.88402 -0.0569156 1.29386
rclavicle -3.94463e-016 -1.59028e-015
rhumerus -27.4071 17.8506 -92.3845
rradius 45.7782
rwrist 14.6243
rhand -18.4137 -37.7623
rfingers 7.12502
rthumb 7.87107 -67.5958
lclavicle -3.94463e-016 -1.59028e-015
lhumerus -30.1187 10.2557 84.5623
lradius 53.059
lwrist -33.105
lhand -12.001 -29.0422
lfingers 7.12502
lthumb 14.056 0.462473
rfemur -9.51853 3.21692 8.88962
rtibia 39.4345
rfoot -34.0792 -9.40546
rtoes 31.575
lfemur -11.8268 -0.530789 -9.44424
ltibia 39.9037
lfoot -27.8377 22.9536
ltoes -35.5146
55
root 10.4626 15.8975 -0.666411 -135.796 -88.5923 132.866
lowerback -7.40872 -0.446464 -3.29523
upperback 3.35311 -0.20287 -0.91635
thorax 7.70524 -0.248081 0.857285
lowerneck -0.228291 0.838536 -1.19332
upperneck 19.3475 0.0454896 3.4874
head 5.86781 -0.0606225 1.28062
rclavicle -9.32114e-015 -1.94809e-014
rhumerus -27.413 17.847 -92.378
rradius 45.7974
rwrist 14.5702
rhand -18.3853 -37.8577
rfingers 7.12502
rthumb 7.89849 -67.6901
lclavicle -9.32114e-015 -1.94809e-014
lhumerus -30.1291 10.2358 84.5738
lradius 53.0669
lwrist -33.0769
lhand -12.0296 -29.0535
lfingers 7.12502
lthumb 14.0285 0.453095
rfemur -9.5289 3.20599 8.89629
rtibia 39.4241
rfoot -34.091 -9.37255
rtoes 31.6463
lfemur -11.8409 -0.513623 -9.43225
ltibia 39.9078
lfoot -27.861 22.9132
ltoes -35.4095
